<svg id="Layer_1" data-name="Layer 1" xmlns="http://www.w3.org/2000/svg" viewBox="0 0 132 30"><defs><style>.cls-1{fill:#f25c05;}.cls-2{fill:#272556;}</style></defs><title>logo</title><path class="cls-1" d="M13.087,3.88V0h3.865V3.88H13.087Zm0,17.415V6.01h3.865V21.3H13.087Z"/><path class="cls-1" d="M22.263,1.605V5.728a11.709,11.709,0,0,1-7.3,20.746A11.709,11.709,0,0,1,7.7,5.7V1.589a15.142,15.142,0,0,0,7.265,28.328A15.143,15.143,0,0,0,22.263,1.605Z"/><path class="cls-2" d="M44.569,5.092h3.752V25.533H44.569V5.092Z"/><path class="cls-2" d="M57.644,24.467a9.985,9.985,0,0,1-3.9-3.766,10.443,10.443,0,0,1-1.414-5.388,10.439,10.439,0,0,1,1.414-5.387,9.986,9.986,0,0,1,3.9-3.767,12.105,12.105,0,0,1,11.142,0,10.024,10.024,0,0,1,3.9,3.752,10.428,10.428,0,0,1,1.414,5.4,10.427,10.427,0,0,1-1.414,5.4,10.022,10.022,0,0,1-3.9,3.752A12.109,12.109,0,0,1,57.644,24.467Zm9.208-2.891a6.614,6.614,0,0,0,2.54-2.57,7.425,7.425,0,0,0,.924-3.694,7.427,7.427,0,0,0-.924-3.694,6.618,6.618,0,0,0-2.54-2.57,7.65,7.65,0,0,0-7.273,0,6.614,6.614,0,0,0-2.54,2.57,7.427,7.427,0,0,0-.924,3.694,7.425,7.425,0,0,0,.924,3.694,6.611,6.611,0,0,0,2.54,2.57A7.65,7.65,0,0,0,66.852,21.576Z"/><path class="cls-2" d="M96.035,5.092V25.533H92.947L81.8,11.692V25.533H78.081V5.092h3.089L92.311,18.934V5.092h3.724Z"/><path class="cls-2" d="M101.461,5.092h3.753V25.533h-3.753V5.092Z"/><path class="cls-2" d="M132,27.576a6.713,6.713,0,0,1-2.352,1.811,6.974,6.974,0,0,1-2.93.613,7.8,7.8,0,0,1-3.809-.948,17.4,17.4,0,0,1-3.955-3.285,10.879,10.879,0,0,1-5.022-1.65,9.957,9.957,0,0,1-3.464-3.708,10.524,10.524,0,0,1-1.241-5.1,10.439,10.439,0,0,1,1.415-5.387,9.983,9.983,0,0,1,3.9-3.767,12.1,12.1,0,0,1,11.141,0,10.024,10.024,0,0,1,3.9,3.752,10.428,10.428,0,0,1,1.414,5.4,10.533,10.533,0,0,1-.953,4.482,10.081,10.081,0,0,1-2.655,3.5,10.467,10.467,0,0,1-3.955,2.088,6,6,0,0,0,1.646,1.314,3.79,3.79,0,0,0,1.732.408,4.522,4.522,0,0,0,3.463-1.634Zm-18.069-8.57a6.608,6.608,0,0,0,2.54,2.57,7.65,7.65,0,0,0,7.273,0,6.614,6.614,0,0,0,2.54-2.57,7.425,7.425,0,0,0,.924-3.694,7.427,7.427,0,0,0-.924-3.694,6.618,6.618,0,0,0-2.54-2.57,7.65,7.65,0,0,0-7.273,0,6.611,6.611,0,0,0-2.54,2.57,7.427,7.427,0,0,0-.924,3.694A7.425,7.425,0,0,0,113.931,19.006Z"/></svg>